<svg width="110" height="89" viewBox="0 0 110 89" fill="none" xmlns="http://www.w3.org/2000/svg">
<path d="M44.1719 26.2202C38.0359 26.5818 32.7164 30.0722 31.0149 34.849C30.5336 36.2049 30.4649 36.6221 30.4734 38.3117C30.4734 39.6676 30.4992 39.9735 30.6711 40.6062C31.2297 42.7339 32.3211 44.5626 33.9625 46.134C34.3234 46.4747 39.2047 50.4658 44.8078 54.9992L55 63.2386L65.5188 54.7211C72.2047 49.3046 76.218 46.0019 76.5445 45.6472C77.9109 44.1593 78.7789 42.6435 79.2688 40.8774C80.1625 37.6094 79.3461 34.1885 77 31.4003C76.3125 30.5798 75.1352 29.5369 74.2156 28.9319C70.0477 26.1785 64.4359 25.4276 59.4 26.9503C57.9992 27.3744 56.8906 27.8681 55.6274 28.6329L55.0086 29.0084L54.6391 28.7651C53.0492 27.7221 50.5656 26.7904 48.3828 26.4219C47.6953 26.3106 45.4524 26.1229 45.1602 26.1507C45.1172 26.1576 44.6703 26.1854 44.1719 26.2202ZM48.125 28.3201C50.4969 28.772 52.4133 29.6133 54.2438 31.0109L55.043 31.6158L55.8766 30.9692C57.6555 29.5925 59.6578 28.7233 62.0469 28.2853C62.8289 28.1462 63.1813 28.1254 64.668 28.1254C66.5844 28.1254 67.1774 28.1949 68.7414 28.619C72.4195 29.6064 75.3844 32.0052 76.6047 34.9742C77.0688 36.1145 77.1805 36.636 77.232 37.9293C77.2664 38.9236 77.2492 39.2434 77.1031 39.9457C76.7852 41.4406 76.1492 42.7408 75.1008 44.0202C74.6281 44.5973 73.4422 45.5916 64.7883 52.6004L55 60.5269L45.4524 52.809C38.6891 47.3369 35.7328 44.8963 35.2945 44.4304C33.9969 43.0537 33.1719 41.4128 32.8711 39.6328C31.943 34.1537 36.5922 29.0919 43.3727 28.1949C44.5586 28.035 46.9649 28.1045 48.125 28.3201Z" fill="white"/>
</svg>
