<svg width="82" height="86" viewBox="0 0 82 86" fill="none" xmlns="http://www.w3.org/2000/svg">
<path d="M27.4609 0.0171792C23.5209 0.311468 20.4125 1.13414 17.1655 2.75273C15.212 3.72923 13.4169 4.90638 11.8528 6.25743C10.9487 7.03329 8.13062 9.71532 7.31887 10.5714C3.78807 14.2969 1.38581 19.0657 0.442064 24.2224C-0.0661072 27.0115 -0.138703 30.1015 0.237475 32.9507C1.32641 41.231 5.97255 48.6551 12.9747 53.3035C14.3871 54.2398 16.2812 55.2431 17.8255 55.8785C23.7717 58.3198 30.4901 58.5873 36.4694 56.6209C38.6803 55.8919 40.8185 54.8552 42.7456 53.5844L43.3792 53.163L48.6523 58.594C72.6617 83.3008 74.2192 84.8927 74.5558 85.1C75.1564 85.4612 75.4402 85.5414 76.1661 85.5414C76.7865 85.5481 76.8591 85.5281 77.321 85.3074C77.8358 85.0666 77.8952 85.0198 79.6375 83.3744C80.799 82.2842 80.9376 82.1304 81.1422 81.7224C81.6306 80.7526 81.558 79.5554 80.964 78.6457C80.8584 78.4919 74.6152 72.0242 67.085 64.2724C59.5549 56.5273 52.6913 49.451 51.8267 48.5614L50.2494 46.9361L50.7048 46.4144C53.2324 43.4983 55.1991 39.7461 56.2419 35.8736C57.608 30.7636 57.4694 25.1855 55.8591 20.1091C53.4832 12.6181 48.1969 6.3912 41.2541 2.91993C38.2381 1.41505 35.2947 0.538873 31.8497 0.13757C31.0577 0.0439327 28.1473 -0.0363279 27.4609 0.0171792ZM28.2661 8.27064C32.5888 8.63181 36.4628 10.1099 39.8616 12.6917C45.2601 16.805 48.5401 22.9717 48.8635 29.6066C49.1143 34.7566 47.6887 39.5522 44.7189 43.5719C43.8082 44.8092 43.2142 45.3844 42.0593 46.1603C39.2478 48.0397 36.0932 49.1968 32.7472 49.5714C31.0379 49.7653 28.5036 49.6784 26.735 49.3707C17.9509 47.8324 10.7441 40.8297 8.78398 31.9207C8.39461 30.1282 8.32861 29.4862 8.32861 27.1653C8.32861 25.2792 8.34841 24.9113 8.4738 24.0753C9.06777 20.2428 10.4405 16.9388 12.6316 14.1029C13.4697 13.0127 13.7733 12.6983 14.5257 12.1566C18.492 9.28058 23.4615 7.87602 28.2661 8.27064Z" fill="white"/>
</svg>
